<?xml version="1.0" encoding="UTF-8"?>
<svg xmlns="http://www.w3.org/2000/svg" version="1.1" viewBox="0 0 743 273.5">
  <defs>
    <style>
      .cls-1 {
        fill: #00567d;
      }
    </style>
  </defs>
  <!-- Generator: Adobe Illustrator 28.7.1, SVG Export Plug-In . SVG Version: 1.2.0 Build 142)  -->
  <g>
    <g id="Layer_1">
      <path class="cls-1" d="M35.8,261.2l-.3.2h-8.6c0,.1-.2-.2-.2-.2l1.6-6.6,2.5-10.4c1.7-7.5,2.2-9.8,3.6-16.8l.3-.3,8.6-.2.2.3c-2.1,8.4-2.6,10.3-4.6,19.2l-1.5,6.8-1.6,8h0Z"/>
      <path class="cls-1" d="M65.1,261.2l-.3.3h-12.6l-9.1.2-.2-.3,2.4-9.8,1.9-7.8c1.8-8,2.1-9.5,3.4-16.3l.3-.3h12.7l8.2-.2.3.3-1.6,5.5-.3.3h-12.4l-1.8,7.8h5.4l6.5-.2.2.4-1.6,5.2-.4.2h-11.4l-.7,3.1-1.2,5.4h5.8l7.9-.2.2.3-1.6,6.1h0Z"/>
      <path class="cls-1" d="M93.4,261.2l-.3.3h-12.6l-9.1.2-.2-.3,2.4-9.8,1.9-7.8c1.8-8,2.1-9.5,3.4-16.3l.3-.3h12.7l8.2-.2.3.3-1.6,5.5-.3.3h-12.3l-1.8,7.8h5.4l6.5-.2.2.4-1.6,5.2-.4.2h-11.5l-.7,3.1-1.3,5.5h5.8l7.9-.2.2.3-1.5,6h0Z"/>
      <path class="cls-1" d="M121.6,261.2l-.3.3h-12.5l-9.1.2-.2-.3,2.4-9.8,1.9-7.8c1.8-8,2.1-9.5,3.4-16.3l.3-.3h12.7l8.2-.2.3.3-1.6,5.5-.3.3h-12.3l-1.8,7.8h5.4l6.5-.2.2.4-1.6,5.2-.4.2h-11.3l-.7,3.1-1.2,5.4h5.8l7.9-.2.2.3-1.9,6.1h0Z"/>
      <path class="cls-1" d="M166.9,260.1l-.3.4c-.5.2-.9.5-1.5.6-1.2.5-3.8,1.1-6.7,1.1s-8.5-.9-11.8-4.6c-2.4-2.7-3.3-6.4-3.3-10.3,0-10.4,6.7-20.9,19.5-20.9s2.9.1,4.5.5c2.8.5,4,1.2,5.5,2.1l.2.4-1.9,6.3h-.3c-.5-.3-.8-.7-1.3-1-1.3-.9-3.4-1.5-5.6-1.5-8.2,0-11.8,8.2-11.8,13.8s3.1,8.8,8.5,8.8,2.2-.2,3.3-.5c1.9-.5,2.9-1.2,4.3-2.2l.4.2-1.7,6.8h0Z"/>
      <path class="cls-1" d="M193.4,259c-2.8,2.3-5.9,3-9.6,3s-5.9-.5-8.2-2.5c-2.1-1.9-3.2-4.5-3.2-8.2s2.4-16.2,15-16.2,6.2.7,8.5,2.7c2.5,2.3,3,5,3,7.8s-.2,3.3-.6,4.9c-.8,3.3-2.3,6.4-4.9,8.5h0ZM190.8,244.7c0-1.8-.6-4.3-3.4-4.3s-3.4,1.4-4,2c-1.9,2.4-2.9,7.9-2.9,10.2s.2,1.8.3,2.1c.5,1.6,1.9,2.3,3.4,2.3s2.7-.8,3.6-1.9c.5-.7,1.6-1.9,2.5-6.3.2-1.2.5-2.7.5-4.1h0Z"/>
      <path class="cls-1" d="M238.2,261.2l-.3.2-7.9.2-.3-.3,2-8.5.8-3.5c.2-1.1,1-4.5,1-5.3,0-1.2-.6-2.7-2.5-2.7s-3.1,1-4,1.6c-.3,2.4-.4,2.9-.9,5.5l-1.1,4.7-1.6,8-.3.2-7.8.2-.2-.3,1.9-8.1.7-3.3c.8-4.2,1-5.1,1-5.9,0-2.5-1.8-2.7-2.4-2.7-1.4,0-2.6.7-3.6,1.6l-1.6,7.3-2.3,11-.3.2-8,.2-.2-.3,2-8.3,1.2-5.2c1.1-5.2,1.2-6.2,2-11l.3-.3c3.4-.5,4.4-.6,8.2-1.4l.3.3-.6,2.9c.7-.6,1.5-1.1,2.3-1.6,1.6-.9,3.8-1.6,5.6-1.6,2.6,0,4.3,1.1,5.2,3.4,2.5-1.9,5.5-3.4,8.7-3.4s6.7,1,6.7,6.3-.4,3.2-.8,4.7l-1,4.6-2.2,10.6h0Z"/>
      <path class="cls-1" d="M281.7,261.2l-.3.2-7.9.2-.3-.3,2-8.5.8-3.5c.2-1.1,1-4.5,1-5.3,0-1.2-.6-2.7-2.5-2.7s-3.1,1-4,1.6c-.3,2.4-.4,2.9-.9,5.5l-1.1,4.7-1.6,8-.3.2-7.8.2-.2-.3,1.9-8.1.7-3.3c.8-4.2,1-5.1,1-5.9,0-2.5-1.8-2.7-2.4-2.7-1.4,0-2.6.7-3.6,1.6l-1.6,7.3-2.3,11-.3.2-8,.2-.2-.3,2-8.3,1.2-5.2c1.1-5.2,1.2-6.2,2-11l.3-.3c3.4-.5,4.4-.6,8.2-1.4l.3.3-.6,2.9c.7-.6,1.5-1.1,2.3-1.6,1.6-.9,3.8-1.6,5.6-1.6,2.6,0,4.3,1.1,5.2,3.4,2.5-1.9,5.5-3.4,8.7-3.4s6.7,1,6.7,6.3-.4,3.2-.8,4.7l-1,4.6-2.2,10.6h0Z"/>
      <path class="cls-1" d="M310.9,261.2l-.3.3-7.6.2-.2-.3.6-2.4c-2.2,2.1-5.1,3.2-7.7,3.2s-6.7-1.3-6.7-6.5.6-4.6,1.2-6.8l1.1-4.8c.8-3.4,1-4.3,1.6-7.5l.3-.3,7.7-.4.2.4c-.5,1.9-.9,3.7-1.4,5.6-.3,1.6-.7,3.1-1.1,4.7-.5,1.8-1.2,5.2-1.2,6.8s1.2,2.8,2.7,2.8,3.3-1,4.3-1.7l2-9.5,1.7-8.5.4-.3,7.8-.4.2.4-3,12.9-1.1,4.9-1.5,7.2h0Z"/>
      <path class="cls-1" d="M340.3,261.2l-.3.2h-7.9c0,.1-.2-.2-.2-.2l1.9-8.2,1.1-5c.2-1,.6-2.9.6-4,0-1.8-1.2-2.7-2.6-2.7s-2.7.7-3.9,1.5c-1.9,8.5-2.4,11.1-3.8,18.3l-.3.3-8,.2-.2-.3,2-8.4.8-3.3c1.3-6,1.6-7.5,2.3-12.8l.4-.4c3.7-.5,4.3-.6,8.1-1.4l.3.3-.6,2.7c1.7-1.2,4-2.9,7.6-2.9s6.5,1.5,6.5,6.4-1,6.8-1.9,10.2l-.6,3.3-1.3,6.2h0Z"/>
      <path class="cls-1" d="M356.3,252.7c-.8,4.1-1,5.1-1.6,8.5l-.3.2-8.4.2-.2-.3c1.5-5.7,1.8-6.8,3.2-13l.5-2.4c.9-4.2,1.1-5.2,1.6-9.1l.3-.3c4.1-.5,5-.7,8.5-1.4l.3.3c-1.2,4.7-1.6,6.5-3.2,13.7l-.7,3.6h0ZM361.1,230.5l-.3.4-8,1.1-.3-.3,1.4-6.5.5-.3,8-1.1.3.3-1.6,6.4h0Z"/>
      <path class="cls-1" d="M381.2,254.6l-1.6,5.9-.3.3c-.5.2-.9.4-1.4.5-1.1.4-3,.7-4.9.7-6.9,0-11.4-4.2-11.4-11.6s4.6-15.3,15.1-15.3,2.5.2,3.7.4c1.9.4,2.7.9,3.8,1.6v.3c.1,0-1.5,5.5-1.5,5.5l-.5.2c-.3-.4-.6-.7-.8-1-1-.8-2.6-1.3-4-1.3-4.6,0-7.5,4.7-7.5,9.1s3,6.3,5.5,6.3,4.4-1.3,5.2-1.9l.6.3h0Z"/>
      <path class="cls-1" d="M410.3,245.4c-1.9,7.8-2.2,9.6-3.2,15.8l-.3.2-7.3.2-.2-.3.3-2.1c-.8.7-1.3,1.2-2.5,1.7-1.5.7-3,1.1-4.6,1.1-2.8,0-5.3-1.3-6.7-3.7-.8-1.4-1.3-3.4-1.3-5.7,0-4.5,1.9-9.5,5.3-12.6,4.6-4.2,9.9-4.2,14.2-4.3h8.2l.3.4-2.2,9.3h0ZM403.4,241.1c-1.2-.1-2.5-.1-3.7.2-5.2,1.4-6.8,7.5-6.8,10.4,0,4.2,2.5,4.8,3.7,4.8,1.8,0,2.8-.8,3.7-1.6l3.1-13.8h0Z"/>
      <path class="cls-1" d="M426.5,261.1l-.4.4c-1.5.3-2.7.5-4.3.5-4.2,0-7.3-1.3-7.3-5.7s.9-5.7,1.6-8.4l1.6-6.7h-3.4c0,.1-.3-.3-.3-.3l1.4-4.9.3-.2h3.2l1.4-6.3.3-.3c3.7-.8,4.6-1.1,8-2l.3.3-1.1,4-1.1,4.4h5c0-.1.2.2.2.2-.7,2-.9,2.6-1.5,4.9l-.4.3h-4.5c0-.1-2,8.4-2,8.4-.3,1.1-.9,3.8-.9,4.6,0,1.6,1.2,2,2.3,2s1.9-.3,2.8-.6l.3.2-1.5,5.2h0Z"/>
      <path class="cls-1" d="M440.2,252.7c-.9,4.1-1,5.1-1.6,8.5l-.3.2-8.4.2-.2-.3c1.5-5.7,1.8-6.8,3.2-13l.5-2.4c.9-4.2,1.1-5.2,1.6-9.1l.3-.3c4.1-.5,5-.7,8.5-1.4l.3.3c-1.2,4.7-1.6,6.5-3.2,13.7l-.7,3.6h0ZM445,230.5l-.3.4-8,1.1-.3-.3,1.4-6.5.5-.3,8-1.1.3.3-1.6,6.4h0Z"/>
      <path class="cls-1" d="M466.3,259c-2.8,2.3-5.9,3-9.6,3s-5.9-.5-8.2-2.5c-2.1-1.9-3.2-4.5-3.2-8.2s2.4-16.2,15-16.2,6.2.7,8.5,2.7c2.5,2.3,3,5,3,7.8s-.2,3.3-.6,4.9c-.7,3.3-2.3,6.4-4.9,8.5h0ZM463.8,244.7c0-1.8-.6-4.3-3.4-4.3s-3.4,1.4-4,2c-1.9,2.4-2.9,7.9-2.9,10.2s.2,1.8.3,2.1c.5,1.6,1.9,2.3,3.4,2.3s2.7-.8,3.6-1.9c.5-.7,1.6-1.9,2.5-6.3.2-1.2.5-2.7.5-4.1h0Z"/>
      <path class="cls-1" d="M497,261.2l-.3.2h-7.9c0,.1-.2-.2-.2-.2l1.9-8.2,1.1-5c.2-1,.6-2.9.6-4,0-1.8-1.2-2.7-2.7-2.7s-2.7.7-3.9,1.5c-1.9,8.5-2.4,11.1-3.8,18.3l-.3.3-8,.2-.2-.3,2-8.4.8-3.3c1.3-6,1.6-7.5,2.3-12.8l.4-.4c3.7-.5,4.3-.6,8.1-1.4l.3.3-.6,2.7c1.7-1.2,4-2.9,7.6-2.9s6.5,1.5,6.5,6.4-1,6.8-1.9,10.2l-.6,3.3-1.2,6.2h0Z"/>
      <path class="cls-1" d="M502.3,259.2l1.5-5.2.5-.2c.9,1,3,3.2,6.8,3.2s4.2-2.1,4.2-2.8c0-1.6-1.6-2.4-3.3-3.2l-1.1-.5c-2.6-1.3-5.1-2.8-5.1-6.7s.5-8.8,11.1-8.8,5.4.5,8.2,1.9l.2.5c-.8,2.5-.9,2.9-1.5,5.2h-.5c-.5-.4-.9-.9-1.5-1.3-1.2-.9-3-1.4-4.3-1.4-2.7,0-3.7,1.3-3.7,2.5s1.7,2.3,3,2.9l1.1.5c2.1,1.1,5.6,2.8,5.6,7.1s-1.2,9.2-11.9,9.2-7.6-1.5-9.1-2.4l-.2-.5h0Z"/>
      <path class="cls-1" d="M540.5,258.9l1.6-6.1.5-.2c.6.7,1.1,1.2,2.3,1.9,2.4,1.4,4.7,1.6,5.6,1.6,3.5,0,6.2-1.8,6.2-4.4s-2.1-3.6-4.5-4.8l-1.6-.8c-2.5-1.5-6.1-3.5-6.1-8.5s.6-4.7,2.6-7c2.6-3,6.6-4.1,10.7-4.1s8.6,1.9,10,2.7l.2.3-1.8,6.1-.5.2c-.6-.7-.9-1-1.6-1.5-1.6-1.1-3.6-1.8-5.6-1.8-3.1,0-5.1,1.7-5.1,4s1.6,3.1,4.6,4.7l1.2.6c2.5,1.5,6.5,3.7,6.5,8.9s-4.3,11.7-14.4,11.7-4.9-.4-7.2-1.2c-1.6-.5-2.4-1-3.3-1.6l-.3-.7h0Z"/>
      <path class="cls-1" d="M589.6,259c-2.8,2.3-5.9,3-9.6,3s-5.9-.5-8.2-2.5c-2.1-1.9-3.2-4.5-3.2-8.2s2.4-16.2,15-16.2,6.2.7,8.5,2.7c2.5,2.3,3,5,3,7.8s-.2,3.3-.6,4.9c-.7,3.3-2.3,6.4-4.9,8.5h0ZM587,244.7c0-1.8-.6-4.3-3.4-4.3s-3.4,1.4-4,2c-1.9,2.4-2.9,7.9-2.9,10.2s.2,1.8.3,2.1c.5,1.6,1.9,2.3,3.4,2.3s2.7-.8,3.6-1.9c.5-.7,1.6-1.9,2.5-6.3.3-1.2.5-2.7.5-4.1h0Z"/>
      <path class="cls-1" d="M617.7,254.6l-1.5,5.9-.3.3c-.5.2-.9.4-1.4.5-1.1.4-3,.7-4.9.7-6.9,0-11.4-4.2-11.4-11.6s4.6-15.3,15.1-15.3,2.5.2,3.7.4c2,.4,2.7.9,3.8,1.6v.3c0,0-1.5,5.5-1.5,5.5l-.5.2c-.3-.4-.6-.7-.9-1-1-.8-2.6-1.3-4-1.3-4.6,0-7.5,4.7-7.5,9.1s3,6.3,5.5,6.3,4.4-1.3,5.2-1.9l.6.3h0Z"/>
      <path class="cls-1" d="M630.2,252.7c-.9,4.1-1,5.1-1.6,8.5l-.3.2-8.4.2-.2-.3c1.5-5.7,1.8-6.8,3.2-13l.5-2.4c.9-4.2,1.1-5.2,1.6-9.1l.3-.3c4.1-.5,5-.7,8.5-1.4l.3.3c-1.2,4.7-1.6,6.5-3.2,13.7l-.7,3.6h0ZM635,230.5l-.3.4-8,1.1-.3-.3,1.4-6.5.5-.3,8-1.1.3.3-1.6,6.4h0Z"/>
      <path class="cls-1" d="M657.8,253.9c-.3,1.1-.6,2.1-.9,3.2-.3,1-.5,2-.7,2.9l-.2.3c-1.2.6-3.5,1.8-8.3,1.8-6.8,0-9-2.6-9.9-3.7-1.8-2.2-2.3-4.6-2.3-7.2,0-7.1,4.4-16,14.6-16s4.5.5,6.1,1.4c3.6,2,3.8,5.6,3.8,7.6s-.5,4.1-.8,5.7l-.4.2c-7.1-.1-9.2,0-15.4.1,0,.5,0,1,0,1.6,0,2.9,1.9,4.5,5.9,4.5s5.8-1.1,8.2-2.8l.4.4h0ZM652.8,245.4c.2-.7.3-1.5.3-2.2,0-1.6-1-3.2-3.3-3.2s-2.1.2-3.4,1.5c-1.4,1.2-1.9,2.8-2.3,4h8.7Z"/>
      <path class="cls-1" d="M675.2,261.1l-.4.4c-1.6.3-2.7.5-4.3.5-4.2,0-7.3-1.3-7.3-5.7s.9-5.7,1.6-8.4l1.6-6.7h-3.4c0,.1-.3-.3-.3-.3l1.4-4.9.3-.2h3.2l1.4-6.3.3-.3c3.7-.8,4.6-1.1,8-2l.3.3-1.1,4-1.1,4.4h5c0-.1.2.2.2.2-.7,2-.9,2.6-1.5,4.9l-.4.3h-4.5c0-.1-2,8.4-2,8.4-.3,1.1-.9,3.8-.9,4.6,0,1.6,1.2,2,2.3,2s2-.3,2.8-.6l.3.2-1.5,5.2h0Z"/>
      <path class="cls-1" d="M706.2,236c-1.2,1.9-1.4,2.2-3,5-1.5,2.7-4,6.8-5.4,9.3l-4.1,7.2c-3.1,5.4-3.5,6.3-8.2,15.6l-.5.3h-7.4c0,.1-.2-.2-.2-.2,2.9-4.5,7.1-10.8,7.1-11.2l-1-7.6-1.1-8.5c-.6-4.7-.8-6-1.4-9.8l.3-.4c3.6-.1,4.6-.1,8.1-.3l.3.3.4,6.5.7,9.7,3.7-7.1c2.4-4.9,2.7-5.4,4.3-8.9l.4-.3,6.8-.2.2.6h0Z"/>
      <path class="cls-1" d="M94.2,169.4c-16.1,0-35.9-9.8-35.6-40.6.4-44.1,27.5-62.7,53.6-60.7-10.6-4.9-29.1-8.5-49.3-6.6-26.6,2.5-47.2,14.6-56.2,36C1.3,110.3,0,120.7,0,131.8c0,47.6,33.6,75,78.4,75s24.3-1.9,31.5-4.4c3.2-1,9.1-3.4,9.1-3.4,0,0,1.4-.7,1.9-2.2.5-1,9.8-37.7,10.1-38.4s-1.9-2.6-3.2-1.6c-1.1.9-15.6,12.6-33.6,12.6h0Z"/>
      <path class="cls-1" d="M151.3,44.1c-1.1-.7-12.3-7.9-24.9-10.4-8.2-1.6-16.1-2.5-24.3-2.5-28.3,0-50.1,9.7-65.7,24,3.2-1.1,6.5-2,9.9-2.8,30.7-6.8,61.3,2.3,83,21.8,1.1.7,6.5,6.1,8.2,8.4.1.2-.1,0,.5.5.5.5,2.8,0,3.1-.9.2-.8,10.6-35.6,10.7-36s.3-1.5-.5-2.1h0Z"/>
      <path class="cls-1" d="M382.3,199.9l-1.2,1.1-35.1.7-.9-1.2,7.2-30.5,2.8-12.3c3-13.6,3.3-16.2,3.3-18.3,0-6.5-4.2-7.9-7.1-7.9s-6.9,1.9-9.3,3.5l-3.2,18.2-3.5,16-6.3,30.8-1.2,1.1-34.7.7-.9-1.2,6.7-28.7,2.8-12.1c.9-4.7,1.9-9.3,2.8-14.1.3-1.8.9-4.4.9-6.7,0-7.2-5.6-7.4-6.7-7.4-4.4,0-6.9,1.9-8.8,3.5l-6,26.8-8,38.2-1.2,1.1-35.3.7-.9-1.2,7.2-29.6,4.9-20.1c4.1-18.9,4.7-23.1,7.1-39.7l1.2-1.2c16.8-2.3,20.1-3,36.1-6l1.1,1.2-2.5,11.5c2.7-2.3,5.3-4.4,8.3-6,3.2-1.9,11.6-6,20.1-6s15.1,1.8,18.9,12.5c6-4.4,16.9-12.5,30.5-12.5s25,5.6,25,23.1-1.2,11-2.7,16.4l-4.2,18.9-7.2,36.7h0Z"/>
      <path class="cls-1" d="M394.9,188.7l9.3-33.9,2.5-.7c2.9,3.4,4.8,5.2,9.3,8.2,10,6.2,20.7,7.5,27,7.5,18.4,0,23.7-9.8,23.7-15.7,0-8.4-7.5-12.5-18.2-18.6l-7.5-4.3c-11.8-6.8-28.5-16.8-28.5-40.5s9.1-30.9,12.9-35.1c13.9-15.5,33.6-19.3,50.3-19.3,25,0,41.2,8.2,49.6,12.3l1.1,1.6-9.4,34.2-2.3.7c-2.7-2.7-5.5-5.2-8.4-7.3-8.4-5.9-19.4-8.2-25.2-8.2-11.1,0-18.4,6.2-18.4,13.9s5,11.6,19.5,19.3l4.6,2.5c10.7,5.9,30.9,17.3,30.9,41.8s-25.5,56.6-69.6,56.6-24.1-1.6-36-5.2c-7.7-2.5-11.1-4.3-16.6-7.5l-.6-2.3h0Z"/>
      <path class="cls-1" d="M611,181.5c-13.7,21.3-37.4,21.8-45.4,21.8-26.3,0-42.3-13-42.3-39.3s5.1-31.2,14.6-42.6c12.5-14.6,29.1-16.8,40.7-16.8s20.9,2.8,25,5.1c17.4,9.1,17.4,29.2,17.4,33.5,0,6.3-.5,12.5-1.9,18.5-1.9,7.8-5.1,15.2-8.1,19.8h0ZM585.9,138c0-6.9-2.8-11.3-8.3-11.3s-10.4,7.4-11.3,9c-4.4,8.5-7.6,26.1-7.6,33.3s0,12.1,8.3,12.1,14.1-12.4,16.9-27c1.8-8.3,2-15.2,2-16.1h0Z"/>
      <path class="cls-1" d="M702.1,172.9c-3.5,12.7-3.8,15-6.2,25.2l-1.4,1.2c-6.5,2.1-12.7,3.9-21.7,3.9-29.6,0-44-17.6-44-43.4s18.3-55.2,55.9-55.2,23.6,4.6,28,7.2l.3,1.4-6.9,23.8-1.8.2c-4.2-5.3-9-8.3-15.7-8.3-12,0-23.3,11.1-23.3,29.8s4.7,19.6,18,19.6,13.4-3.5,16.9-6.2l1.9.8h0Z"/>
      <path class="cls-1" d="M228.8,181.5c-13.8,21.3-37.4,21.8-45.5,21.8-26.3,0-42.3-13-42.3-39.3s5.1-31.2,14.6-42.6c12.5-14.6,29.1-16.8,40.7-16.8s20.9,2.8,25,5.1c17.4,9.1,17.4,29.2,17.4,33.5,0,6.3-.5,12.5-1.9,18.5-1.8,7.8-5,15.2-8,19.8h0ZM203.7,138c0-6.9-2.8-11.3-8.3-11.3s-10.4,7.4-11.3,9c-4.4,8.5-7.6,26.1-7.6,33.3s0,12.1,8.3,12.1,14.1-12.4,16.9-27c1.8-8.3,2-15.2,2-16.1h0Z"/>
      <path class="cls-1" d="M191.9.7c-.3,16.9-.6,33.8-.6,50.6s.2,23.4.8,34.6l-.7.7c-10.2,0-12.6,0-21.8.3l-.6-.7c.5-12.7.7-20.2.7-34.6,0-31.2-.4-37.4-1.1-50.6l.5-.7c8.8.1,11.6.1,22.1-.3l.7.7h0Z"/>
      <path class="cls-1" d="M261.4,71l-.8,14.9-1,.7h-53.8l-.6-.5c.3-12.9.6-20.5.6-36,0-32.8-.2-37.3-1-49.2l.7-.7h53.7l.6.5-.8,14.3-.6.7c-14.8-.3-17.6-.3-31.4-.3v19.4l29.6-.5.6.7-.7,13.8-.8.7h-28.6l.2,21.4c15.6,0,19.1,0,33.5-.8l.6.9h0Z"/>
      <path class="cls-1" d="M327.8,71l-.8,14.9-1,.7h-53.8l-.6-.5c.4-12.9.6-20.5.6-36,0-32.8-.2-37.3-1-49.2l.7-.7h53.7l.6.5-.9,14.2-.6.7c-14.8-.3-17.6-.3-31.4-.3v19.4l29.6-.5.6.7-.7,13.8-.8.7h-28.6l.2,21.4c15.6,0,19.1,0,33.5-.8l.7,1h0Z"/>
      <path class="cls-1" d="M394,71l-.8,14.9-1,.7h-53.9l-.6-.5c.3-12.9.6-20.5.6-36,0-32.8-.2-37.3-1-49.2l.7-.7h53.7l.6.5-.8,14.2-.6.7c-14.8-.3-17.6-.3-31.4-.3v19.4l29.6-.5.6.7-.7,14-.8.7h-28.6l.2,21.4c15.6,0,19.1,0,33.5-.8l.7.8h0Z"/>
      <path class="cls-1" d="M729.7,130c-4.6,0-8.9-3.6-8.9-8.9s4.1-9,8.9-9,9,4.1,9,9-3.9,8.9-9,8.9ZM729.8,112.9c-4.6,0-8.2,3.7-8.2,8.2s3.7,8.1,8.1,8.1,8.1-3.6,8.1-8.1c.1-4.4-3.4-8.2-8-8.2ZM729.6,115.4c1.2,0,1.9,0,2.6.3,1.2.4,1.8,1.5,1.8,2.6s-.9,2.3-2.3,2.7c.9.4,1.4.8,1.6,2.4.3,1.7.4,2.3.9,3.3h-2.3c0-.2-.3-.6-.5-1.6,0-.3-.2-1.5-.3-1.7-.3-1.6-1.1-1.7-2.5-1.8h-.6v5h-2v-11.3h3.6ZM728,120h1.7c.8,0,2.4,0,2.4-1.6s-.2-1-.8-1.3c-.4-.2-.7-.2-2-.2h-1.3v3.1Z"/>
    </g>
  </g>
</svg>